<svg width="230.69" height="230.691" xmlns="http://www.w3.org/2000/svg">
 <g>
  <title>Layer 1</title>
  <g id="svg_1">
   <path id="svg_2" d="m132.32144,170.977c3.9,1.105 3.369,4.004 3.911,6.282c0.869,3.654 0.195,7.262 -0.271,10.909c-0.186,1.459 -2.216,3.332 -0.167,4.42c1.521,0.809 2.982,-1.043 4.389,-1.827c1.445,-0.806 2.79,-1.829 4.07,-2.888c3.269,-2.703 4.892,-5.796 2.439,-9.994c-1.899,-3.254 -2.264,-6.816 -1.466,-11.508c2.023,4.93 3.896,8.928 5.292,13.085c0.992,2.956 0.535,5.931 -1.808,8.356c-1.851,1.915 -3.686,3.85 -5.447,5.846c-2.194,2.488 -2.374,5.332 -0.075,7.617c2.043,2.029 4.158,3.646 3.661,6.988c-0.155,1.047 0.896,1.828 2.077,1.43c1.406,-0.475 2.488,-1.752 1.932,-3.07c-3.346,-7.926 1.852,-14.089 4.092,-20.852c0.52,-1.571 1.402,-3.021 1.933,-4.59c3.413,-10.095 -0.667,-18.187 -8.429,-25.833c-0.912,-0.897 -2.722,-1.276 -2.521,-2.782c1.033,-7.799 -3.971,-14.668 -3.105,-22.537c0.766,-6.961 3.473,-12.111 10.125,-14.61c7.721,-2.9 14.9,-7.138 23.388,-8.168c7.675,-0.933 13.034,-6.438 16.483,-12.657c5.652,-10.194 1.325,-16.503 -8.997,-21.948c-7.854,-4.143 -16.921,-5.773 -25.839,-6.67c-10.317,-1.036 -19.745,-3.989 -28.226,-10.143c-4.88,-3.541 -6.513,-9.07 -9.501,-13.766c-0.507,-0.797 -0.45,-2.531 0.091,-3.328c4.714,-6.943 10.022,-13.319 18.116,-16.57c0.873,-0.352 1.938,-0.223 3.691,-0.39c-3.195,3.649 -6.122,6.63 -8.632,9.927c-7.418,9.746 -5.836,16.813 4.941,22.684c8.475,4.617 17.862,6.029 27.193,7.659c5.225,0.913 10.518,1.65 15.611,3.075c20.682,5.783 24.731,22.59 12.76,38.631c-6.676,8.944 -15.893,10.835 -24.891,14.001c-13.73,4.829 -19.743,17.717 -18.095,29.792c0.713,5.22 5.271,8.778 8.989,12.294c2.669,2.521 3.954,4.874 3.135,8.666c-0.658,3.045 -0.313,6.305 -0.434,9.467c-0.158,4.201 -0.425,8.113 -5.297,10.129c-3.412,1.412 -3.4,5.279 -3.301,8.267c0.087,2.603 2.9,3.234 5.217,3.845c4.559,1.202 9.164,1.478 13.836,1.012c6.1,-0.607 12.002,-0.348 16.922,4.016c1.23,1.091 2.99,2.219 2.246,4.038c-0.82,2.003 -2.986,1.799 -4.826,1.65c-2.693,-0.218 -4.578,-1.937 -6.256,-3.786c-1.762,-1.938 -3.577,-2.365 -6.215,-1.859c-4.387,0.84 -8.896,1.041 -13.354,1.51c-1.682,0.177 -3.838,0.36 -3.919,2.295c-0.094,2.234 2.218,2.05 3.767,2.053c6.647,0.014 12.852,1.088 17.904,5.988c1.55,1.504 3.798,1.96 6.958,2.364c-5.866,5.569 -11.964,9.822 -19.28,10.188c-17.123,0.859 -34.293,-0.127 -51.455,0.971c-5.972,0.381 -11.981,-2.32 -18.218,-2.031c-1.689,0.078 -3.597,-1.223 -4.234,-3.08c-0.741,-2.16 0.602,-3.886 2.059,-5.27c4.502,-4.277 9.96,-4.999 15.799,-3.874c10.437,2.011 10.482,2.014 12.827,-8.459c0.653,-2.916 1.217,-5.852 1.807,-8.781c0.625,-3.101 0.038,-5.968 -1.802,-8.536c-1.217,-1.701 -3.708,-2.746 -4.684,-1.336c-2.972,4.299 -8.463,4.498 -11.795,8.272c-3.795,4.3 -8.582,7.128 -14.963,6.438c-4.351,-0.47 -7.84,2.511 -11.317,4.688c-7.626,4.775 -15.897,7.378 -24.78,8.386c-3.204,0.363 -4.665,-0.747 -5.759,-3.878c-2.01,-5.748 -2.756,-11.068 0.987,-16.447c1.493,-2.146 2.708,-4.67 3.336,-7.198c1.877,-7.558 7.878,-11.079 13.744,-14.817c3.777,-2.408 7.65,-2.102 11.338,-0.002c4.327,2.463 8.501,5.199 12.72,7.852c2.683,1.686 5.375,3.299 8.581,3.836c6.644,1.11 11.856,-1.467 12.843,-7.782c1.373,-8.782 5.887,-16.533 7.265,-25.249c1.692,-10.709 -0.187,-13.69 -10.193,-17.794c-8.437,-3.46 -16.797,-3.396 -25.359,-1.042c-1.28,0.353 -2.525,0.885 -3.825,1.094c-1.579,0.255 -3.95,1.028 -4.384,-0.912c-0.469,-2.096 2.233,-2.105 3.585,-2.44c11.269,-2.786 22.91,-3.862 34.193,-1.848c13.144,2.348 15.529,11.696 12.979,25.603c-0.804,4.384 -2.758,8.639 -5.708,12.493c-5.438,7.106 -2.257,15.896 6.244,19.112c3.016,1.142 3.63,-0.867 3.822,-2.899c0.417,-4.454 0.47,-8.93 -0.47,-13.778zm-22.8,19.328c-9.3,2.825 -16.008,-1.805 -22.63,-6.805c-2.521,-1.904 -5.144,-3.671 -7.731,-5.484c-3.868,-2.711 -7.177,-2.518 -10.281,1.438c-3.182,4.057 -6.688,7.86 -9.347,12.312c-2.7,4.521 -4.194,9.342 -3.86,14.695c0.205,3.286 1.863,4.822 5.04,4.922c4.232,0.133 8.3,-0.791 12.137,-2.426c8.845,-3.766 17.569,-7.782 26.748,-10.763c3.979,-1.293 7.859,-3.34 9.924,-7.889zm26.567,35.713c10.487,-0.064 20.988,0.348 31.445,-0.881c2.401,-0.281 5.093,-0.5 5.276,-3.404c0.175,-2.752 -1.865,-4.576 -4.525,-5.196c-1.756,-0.409 -3.641,-0.621 -5.431,-0.473c-8.612,0.714 -16.813,-1.573 -25.091,-3.278c-0.902,-0.186 -2.156,-0.734 -2.431,-1.434c-0.484,-1.235 1.115,-1.324 1.795,-1.934c2.325,-2.083 2.747,-8.307 0.37,-9.82c-3.146,-2.004 -5.739,-0.24 -7.8,2.16c-2.274,2.648 -2.79,5.689 -0.842,8.744c1.151,1.805 2.649,3.389 3.971,5.087c1.231,1.581 1.821,3.433 -1.05,3.146c-7.824,-0.783 -15.469,4.746 -23.435,0.41c-1.687,-0.918 -3.659,0.74 -4.318,2.541c-0.797,2.175 1.13,2.773 2.701,3.381c2.053,0.794 4.196,0.963 6.376,0.958c7.664,-0.017 15.327,-0.007 22.989,-0.007z" fill="#F6F6F6" clip-rule="evenodd" fill-rule="evenodd"/>
   <path id="svg_3" d="m57.20244,14.144c2.473,3.294 2.149,6.859 2.293,9.97c0.509,11.015 5.128,19.712 13.263,26.886c4.18,3.685 7.55,7.814 7.458,14c-0.122,8.17 -6.334,14.856 -15.458,15.854c-4.645,0.508 -9.351,0.582 -13.772,-1.215c-4.158,-1.69 -7.132,-0.312 -9.396,3.146c-1.452,2.216 -2.809,4.52 -3.955,6.905c-2.194,4.566 -1.437,5.932 3.516,6.891c-0.046,0.16 -0.041,0.387 -0.147,0.467c-2.89,2.213 -6.299,5.464 -9.631,3.1c-3.145,-2.232 -0.074,-6.077 0.575,-9.186c0.101,-0.48 0.306,-0.947 0.515,-1.396c7.145,-15.352 8.915,-17.316 27.366,-12.938c5.229,1.241 9.535,0.363 13.519,-2.75c6.054,-4.732 5.573,-11.947 -0.921,-16.026c-0.141,-0.089 -0.269,-0.221 -0.422,-0.264c-14.439,-4.067 -16.03,-15.565 -15.934,-27.868c0.039,-5.032 -1.027,-10.215 1.131,-15.576z" fill="#F6F6F6" clip-rule="evenodd" fill-rule="evenodd"/>
   <path id="svg_4" d="m74.61944,98.644c-1.138,9.407 -2.052,18.62 -11.174,24.317c-2.61,1.631 -4.403,4.518 -6.796,6.564c-2.021,1.729 -4.912,2.434 -6.912,0.773c-2.179,-1.808 0.045,-3.969 1.18,-5.629c6.411,-9.375 14.879,-16.979 22.228,-25.551c0.258,-0.3 0.876,-0.293 1.474,-0.474z" fill="#F6F6F6" clip-rule="evenodd" fill-rule="evenodd"/>
   <path id="svg_5" d="m105.25044,0c-0.088,6.717 -1.337,13.206 -3.389,19.497c-1.643,5.037 -2.277,9.871 0.002,14.92c1.224,2.709 1.98,5.721 -0.403,8.363c-0.739,0.82 -1.746,0.871 -2.725,0.265c-3.035,-1.883 -4.244,-4.772 -3.667,-8.105c2.078,-12.005 4.514,-23.929 10.182,-34.94z" fill="#F6F6F6" clip-rule="evenodd" fill-rule="evenodd"/>
   <path id="svg_6" d="m134.94844,78.369c-0.051,2.614 -0.661,5.868 -2.657,8.677c-0.892,1.254 -2.156,2.227 -3.842,1.684c-1.596,-0.515 -1.478,-1.977 -1.561,-3.322c-0.188,-3.049 0.489,-5.995 1.358,-8.833c0.638,-2.083 1.041,-5.329 3.958,-4.985c3.224,0.378 2.913,3.483 2.744,6.779z" fill="#F6F6F6" clip-rule="evenodd" fill-rule="evenodd"/>
  </g>
 </g>
</svg>